<svg width="400" height="400" viewBox="0 0 400 400" fill="none" xmlns="http://www.w3.org/2000/svg">
<rect width="400" height="400" rx="60" fill="url(#paint0_linear_2296_3)"/>
<path d="M232.5 59C261.208 59 283.105 67.9873 298.271 81.9619C313.429 95.9299 321.797 114.821 323.557 134.52C327.048 173.598 304.533 215.966 257.289 229.643L256.168 229.96C254.824 230.333 254.187 231.85 254.821 232.979L309.36 330.041L309.491 330.292C310.737 332.909 308.836 336 305.873 336H255.746C254.307 336 252.979 335.227 252.269 333.976H252.268L197.493 237.513C197.138 236.887 196.473 236.5 195.754 236.5H187.549C184.241 236.5 182.363 232.713 184.365 230.079L210.538 195.651V195.65L210.695 195.457C211.509 194.52 212.732 194.028 213.936 194.062L214.763 194.08C232.056 194.381 244.685 188.873 253.111 180.515C261.685 172.011 265.987 160.477 266.352 148.877C266.716 137.272 263.139 125.665 256.041 117.039C248.96 108.434 238.349 102.757 224.518 103H172.076C171.296 103 170.591 103.454 170.265 104.152L170.204 104.295L143.464 175.295C142.971 176.603 143.938 178 145.336 178H201.737C204.872 178 206.75 181.419 205.177 184.043L205.014 184.294L99.8311 334.509L99.8184 334.527L99.8047 334.545C98.8483 335.787 97.9543 336.698 96.8457 337.268C95.7294 337.841 94.5056 338.011 93 337.999V338H92.2451C89.6277 338 87.7158 335.527 88.374 332.994L119.557 213.003L119.604 212.767C119.765 211.587 118.848 210.5 117.621 210.5H64.8105C61.8513 210.5 59.916 207.398 61.2178 204.74L131.511 61.2402L131.646 60.9893C132.358 59.7642 133.671 59 135.103 59H232.5Z" fill="url(#paint1_linear_2296_3)" stroke="white" stroke-width="2"/>
<defs>
<linearGradient id="paint0_linear_2296_3" x1="0.0455354" y1="-2.54659e-06" x2="400.046" y2="400" gradientUnits="userSpaceOnUse">
<stop stop-color="#0DAEFF"/>
<stop offset="1" stop-color="#1A018A"/>
</linearGradient>
<linearGradient id="paint1_linear_2296_3" x1="139.5" y1="88" x2="282" y2="325" gradientUnits="userSpaceOnUse">
<stop stop-color="#EFF5FF"/>
<stop offset="1" stop-color="#C9C3D5"/>
</linearGradient>
</defs>
</svg>
