<svg width="270" height="285" viewBox="0 0 270 285" fill="none" xmlns="http://www.w3.org/2000/svg">
<path d="M175.5 2C204.425 2 226.575 11.0603 241.948 25.2266C257.307 39.3795 265.773 58.5102 267.553 78.4307C271.082 117.94 248.313 160.78 200.568 174.603L199.436 174.924C198.668 175.137 198.401 175.969 198.693 176.489L253.232 273.551L253.396 273.865C254.953 277.137 252.577 281 248.873 281H198.746C197.059 281 195.495 280.15 194.574 278.755L194.398 278.469L139.623 182.006C139.445 181.693 139.113 181.5 138.754 181.5H130.549C126.414 181.5 124.066 176.766 126.568 173.474L152.741 139.046L152.939 138.802C153.963 137.623 155.482 137.02 156.963 137.062L157.779 137.08C174.839 137.377 187.197 131.948 195.407 123.805C203.775 115.505 207.995 104.227 208.353 92.8457C208.711 81.4551 205.196 70.0923 198.269 61.6738C191.377 53.2986 181.054 47.7629 167.535 48H115.076C114.712 48 114.38 48.1974 114.205 48.5078L114.14 48.6475L87.3994 119.647C87.1531 120.301 87.6371 121 88.3359 121H144.737C148.656 121 151.003 125.274 149.037 128.554L148.833 128.868L43.6504 279.082L43.624 279.119L43.5967 279.155C42.6088 280.439 41.6068 281.488 40.3027 282.157C38.9836 282.835 37.5771 283.011 36 282.999V283H35.2451C31.9732 283 29.5833 279.909 30.4062 276.742L61.5889 156.752L61.6123 156.633C61.6928 156.043 61.2343 155.5 60.6211 155.5H7.81055C4.11146 155.5 1.69315 151.623 3.32031 148.301L73.6133 4.80078L73.7803 4.48633C74.6702 2.95498 76.313 2.00002 78.1025 2H175.5Z" fill="url(#paint0_linear_2293_2)" stroke="url(#paint1_linear_2293_2)" stroke-width="4"/>
<defs>
<linearGradient id="paint0_linear_2293_2" x1="82.5" y1="32" x2="225" y2="269" gradientUnits="userSpaceOnUse">
<stop stop-color="#EFF5FF"/>
<stop offset="1" stop-color="#C9C3D5"/>
</linearGradient>
<linearGradient id="paint1_linear_2293_2" x1="78" y1="4" x2="253.5" y2="281" gradientUnits="userSpaceOnUse">
<stop stop-color="#0DAEFF"/>
<stop offset="1" stop-color="#1A018A"/>
</linearGradient>
</defs>
</svg>
